<?xml version="1.0" standalone="no"?><!DOCTYPE svg PUBLIC "-//W3C//DTD SVG 1.1//EN" "http://www.w3.org/Graphics/SVG/1.1/DTD/svg11.dtd"><svg t="1598967245649" class="icon" viewBox="0 0 1024 1024" version="1.1" xmlns="http://www.w3.org/2000/svg" p-id="2714" xmlns:xlink="http://www.w3.org/1999/xlink" width="200" height="200"><defs><style type="text/css"></style></defs><path d="M908.49 562.043H754.526c-23.01 114.216-123.222 200.183-243.363 200.183S290.81 676.259 267.8 562.043H113.836c-27.431 0-49.667-22.405-49.667-50.044 0-27.64 22.236-50.044 49.667-50.044H267.8c23.01-114.216 123.222-200.183 243.363-200.183s220.353 85.967 243.363 200.183H908.49c27.431 0 49.666 22.404 49.666 50.044 0 27.64-22.236 50.044-49.666 50.044zM511.163 361.865c-82.291 0-148.998 67.218-148.998 150.135s66.707 150.135 148.998 150.135S660.16 594.917 660.16 512s-66.706-150.135-148.997-150.135z" p-id="2715" fill="#d81e06"></path></svg>