<?xml version="1.0" standalone="no"?><!DOCTYPE svg PUBLIC "-//W3C//DTD SVG 1.1//EN" "http://www.w3.org/Graphics/SVG/1.1/DTD/svg11.dtd"><svg t="1594546372542" class="icon" viewBox="0 0 1041 1024" version="1.1" xmlns="http://www.w3.org/2000/svg" p-id="2778" xmlns:xlink="http://www.w3.org/1999/xlink" width="203.3203125" height="200"><defs><style type="text/css"></style></defs><path d="M958.801433 35.397414a26.027511 26.027511 0 1 1 35.7618 37.826649L361.105681 672.065025a26.027511 26.027511 0 0 0-8.155286 18.913325v296.019553a26.027511 26.027511 0 1 1-52.055022 0v-296.019553a78.082532 78.082532 0 0 1 24.448509-56.739973L958.801433 35.380063z" fill="#5ED7BC" p-id="2779"></path><path d="M65.537272 361.60888L263.901605 559.93851a26.027511 26.027511 0 0 1-36.8029 36.820252L18.791863 388.486622a43.379184 43.379184 0 0 1 16.969936-71.835929L970.027966 5.222854a43.379184 43.379184 0 0 1 54.865992 54.883344L713.466119 994.372364a43.379184 43.379184 0 0 1-71.870633 16.90053L443.265856 811.884812a26.027511 26.027511 0 0 1 36.924362-36.716142l188.352418 189.393519L970.027966 60.106198 65.537272 361.591528z" fill="#0069F6" p-id="2780"></path></svg>